# xmcd
#
# Track frame offsets:
#	182
#	17355
#	30807
#	40330
#	55387
#	63962
#	79017
#	89580
#	102102
#	115082
#	128870
#	144282
#	155632
#	168282
#	180767
#	192645
#
# Disc length: 2698 seconds
#
# Revision: 0
# Processed by: cddbd v1.4PL0 Copyright (c) Steve Scherf et al.
# Submitted via: dBpowerAMP V4.0
#
DISCID=c20a8810
DTITLE=The platters The Drifters - The Essential Collection
DYEAR=1995
DGENRE=Oldies
TTITLE0=If I had a love
TTITLE1=Alone in the night
TTITLE2=Doesn't it ring a bell
TTITLE3=The wonder of you
TTITLE4=Sweet sweet lovin'
TTITLE5=The great pretender
TTITLE6=Red sails in the sunset
TTITLE7=Only you
TTITLE8=Enchanted
TTITLE9=Harbour lights
TTITLE10=My prayer
TTITLE11=Smoke gets in your eyes
TTITLE12=Remember when
TTITLE13=Twilight time
TTITLE14=Crying in the chapel
TTITLE15=The more I see you
EXTD=The Platters The Drifters
EXTT0=
EXTT1=
EXTT2=
EXTT3=
EXTT4=
EXTT5=
EXTT6=
EXTT7=
EXTT8=
EXTT9=
EXTT10=
EXTT11=
EXTT12=
EXTT13=
EXTT14=
EXTT15=
PLAYORDER=
